<svg version="1.1" xmlns="http://www.w3.org/2000/svg" xmlns:xlink="http://www.w3.org/1999/xlink" width="151.897" height="120.46372" viewBox="0,0,151.897,120.46372"><g transform="translate(-169.347,-123.77949)"><g data-paper-data="{&quot;isPaintingLayer&quot;:true}" fill-rule="nonzero" stroke="none" stroke-linecap="butt" stroke-linejoin="miter" stroke-miterlimit="10" stroke-dasharray="" stroke-dashoffset="0" style="mix-blend-mode: normal"><g stroke-width="1"><path d="M245.198,131.292c1.684,0.225 3.611,0.97 4.706,1.819c2.182,1.691 4.041,2.938 3.361,9.879c0.062,-0.622 -14.274,-7.253 -14.274,-7.253c0.474,-2.5 3.583,-4.798 6.207,-4.445" fill="#000000"/><path d="M252.391,142.594c0,0 0.59,-2.357 2.95,-1.105c2.359,1.252 0.794,4.037 0.22,5.082c-0.705,1.285 -2.055,1.695 -3.381,2.131c0.179,-2.408 0.211,-6.108 0.211,-6.108" fill="#a0783c"/><path d="M238.853,147.694c-1.324,-0.438 -2.674,-0.847 -3.38,-2.131c-0.574,-1.045 -2.139,-3.83 0.221,-5.082c2.36,-1.252 2.95,1.105 2.95,1.105c0,0 0.031,3.699 0.209,6.108" fill="#a0783c"/><path d="M253.237,141.261c0.298,2.388 0.098,10.261 -0.643,11.678c-0.759,1.449 -1.588,2.615 -3.222,3.289c-3.719,1.532 -7.312,0.305 -9.709,-3.221c-1.132,-1.667 -1.523,-3.257 -1.745,-5.236c-0.161,-1.443 -0.254,-6.267 -0.376,-6.554c0.058,-4.931 2.228,-9.014 7.701,-8.725c4.727,0.251 7.475,4.604 7.994,8.769" fill="#be965a"/><path d="M248.955,133.058c-1.873,1.203 -8.12,1.069 -8.12,1.069l3.212,-2.094z" fill="#000000"/><path d="M245.53,144.83c2.16,-0.001 3.974,-0.156 3.974,1.783c0,0.97 -2.012,2.119 -4.09,2.172c-2.079,0.053 -4.223,-0.988 -4.266,-2.019c0.925,-2.041 2.221,-1.936 4.382,-1.936" fill="#000000"/><path d="M246.1,139.824c0.172,0.57 0.086,1.566 -0.327,1.797c-1.167,0.657 -1.873,-0.236 -2.028,-0.535c-0.625,-1.209 0.016,-3.144 1.094,-3.859c0.536,0.848 0.986,1.682 1.261,2.597" fill="#a0783c"/><path d="M249.221,137.765c0.22,0.709 0.261,1.251 -0.239,1.756c-0.818,-0.401 -0.545,-1.077 -0.561,-1.756z" fill="#000000"/><path d="M241.129,139.336c-0.57,-0.167 -0.57,-0.167 -0.839,-0.769c0.106,-0.176 0.229,-0.38 0.368,-0.611c0.2,0.039 0.364,0.07 0.535,0.102c0.216,0.439 0.256,0.828 -0.064,1.278" fill="#000000"/></g><g stroke-width="1"><path d="M314.735,132.833c1.227,0.989 5.133,-2.133 6.509,-1.555c-0.507,1.995 -21.632,16.97 -26.525,20.135c-9.392,6.075 -35.78,20.117 -38.516,21.334c-1.108,-0.603 -1.547,-4.113 -2.043,-5.374c-0.793,-2.014 -0.984,-6.923 -0.984,-6.923l49.345,-28.653c0,0 14.337,-8.855 14.647,-7.953c0.311,0.902 -5.874,5.126 -4.885,5.786c0.991,0.659 7.357,-3.721 8.018,-2.59c0.659,1.13 -6.792,4.804 -5.566,5.793" fill="#be965a"/><path d="M308.1,123.973c0.998,0.08 -2.606,5.623 -1.677,5.903c3.035,0.917 4.154,3.436 1.118,4.866c-2.249,1.058 -4.664,-0.012 -4.428,-2.744c0.236,-2.732 3.988,-8.104 4.987,-8.025" fill="#a0783c"/></g><g stroke-width="1"><path d="M175.854,132.833c1.226,-0.989 -6.225,-4.663 -5.564,-5.793c0.66,-1.131 7.027,3.249 8.016,2.59c0.991,-0.66 -5.196,-4.884 -4.885,-5.786c0.311,-0.902 14.647,7.953 14.647,7.953l49.347,28.653c0,0 -0.192,4.909 -0.985,6.923c-0.496,1.261 -0.936,4.771 -2.043,5.374c-2.736,-1.217 -29.124,-15.259 -38.516,-21.334c-4.893,-3.165 -26.018,-18.14 -26.524,-20.135c1.375,-0.578 5.281,2.544 6.507,1.555" fill="#be965a"/><path d="M182.541,123.973c0.997,-0.079 4.751,5.293 4.986,8.025c0.237,2.732 -2.179,3.802 -4.427,2.744c-3.036,-1.43 -1.917,-3.949 1.118,-4.866c0.929,-0.28 -2.676,-5.823 -1.677,-5.903" fill="#a0783c"/></g><g stroke-width="1"><path d="M222.234,205.219c0,0 1.464,-13.188 2.439,-14.893c0.976,-1.704 40.224,-1.582 40.224,-1.582l3.164,15.218z" fill="#006482"/><path d="M268.191,217.328c-0.177,1.04 -0.366,2.075 -0.525,3.109c-0.459,2.986 -1.87,11.307 -3.037,15.611c-0.647,2.388 -1.446,2.554 -1.446,2.554c0,0 -24.622,0.265 -27.647,0.267c-2.88,0.002 -5.812,0.231 -8.666,-0.235c-0.508,0.071 -1.114,-2.04 -1.262,-2.586c-1.166,-4.304 -2.578,-12.625 -3.037,-15.611c-0.159,-1.034 -0.348,-2.069 -0.524,-3.109h2.898c0.735,4.574 3.028,17.578 3.028,17.578c0,0 0.152,0.53 0.218,1.191c0.948,-0.117 2.068,-0.103 3.127,-0.047c1.457,0.077 29.243,-0.082 29.243,-0.082c0,0 0.714,-0.092 1.5,-0.013c0.071,-0.593 0.203,-1.049 0.203,-1.049c0,0 2.294,-13.004 3.029,-17.578z" fill="#006482"/><path d="M258.925,244.243c-0.728,0.017 -1.012,-1.018 -1.014,-2.194c-0.001,-1.136 -0.105,-1.385 0.223,-2.51c0.206,-0.22 0.491,-0.344 0.936,-0.317c0.769,0.174 0.851,1.088 0.788,1.946c-0.003,0.05 0.344,3.044 -0.933,3.075" fill="#000000"/><path d="M256.821,240.539v-5.221h4.101v5.221h-4.101" fill="#008cb4"/><path d="M231.487,244.243c-0.727,0.017 -1.011,-1.018 -1.013,-2.194c-0.002,-1.136 -0.106,-1.385 0.223,-2.51c0.205,-0.22 0.491,-0.344 0.936,-0.317c0.769,0.174 0.85,1.088 0.788,1.946c-0.004,0.05 0.344,3.044 -0.934,3.075" fill="#000000"/><path d="M229.383,240.539v-5.221h4.101v5.221h-4.101" fill="#008cb4"/><path d="M227.5,217.368l-2.405,0.541l-2.861,-12.69l2.404,-0.541l2.862,12.69" fill="#006482"/><path d="M218.353,233.728l-2.409,-0.521l3.745,-17.235l2.407,0.522l-3.743,17.234" fill="#006482"/><path d="M271.262,233.728l-3.745,-17.234l2.409,-0.522l3.743,17.235l-2.407,0.521" fill="#006482"/><path d="M265.406,217.912l-2.427,-0.419l2.215,-12.818l2.429,0.418l-2.217,12.819" fill="#006482"/><path d="M255.611,217.628c1.127,-0.197 26.106,-4.664 26.106,-4.664l1.236,3.334c0,0 -27.221,5.064 -27.484,5.005c-0.343,-1.276 -0.051,-2.282 0.142,-3.675" fill="#006482"/><path d="M275.584,209.368l2.99,13.293l-4.037,0.896l-3.495,-13.144l4.542,-1.045" fill="#008cb4"/><path d="M269.004,188.159c2.841,-0.747 3.721,4.489 3.721,4.489c0,0 12.203,40.675 12.968,42.77c1.212,3.319 2.278,7.148 0.703,8.382c-0.945,0.402 -1.717,0.126 -2.421,-0.562c-2.015,-4.005 -2.996,-8.456 -4.298,-12.722c-1.35,-4.421 -9.722,-31.169 -10.972,-37.876c-0.694,-3.722 -1.318,-4.057 0.299,-4.481" fill="#000000"/><path d="M275.49,193.035c0.789,-0.201 1.643,1.665 1.643,1.665c0,0 11.823,37.966 12.031,38.548c0.327,0.924 0.542,2.812 0.101,3.15c-0.262,0.109 -0.475,0.031 -0.669,-0.162c-0.549,-1.116 -0.809,-2.352 -1.161,-3.539c-0.363,-1.229 -11.709,-36.558 -12.039,-38.421c-0.183,-1.033 -0.356,-1.127 0.094,-1.241" fill="#000000"/><path d="M233.793,217.628c0.193,1.393 0.485,2.399 0.141,3.675c-0.261,0.059 -27.483,-5.005 -27.483,-5.005l1.236,-3.334c0,0 24.979,4.467 26.106,4.664" fill="#006482"/><path d="M213.82,209.368l4.543,1.045l-3.496,13.144l-4.037,-0.896l2.99,-13.293" fill="#008cb4"/><path d="M220.4,188.159c1.617,0.424 0.993,0.759 0.299,4.481c-1.25,6.707 -9.621,33.455 -10.971,37.876c-1.303,4.266 -2.283,8.717 -4.298,12.722c-0.705,0.688 -1.476,0.964 -2.42,0.562c-1.577,-1.234 -0.51,-5.063 0.702,-8.382c0.764,-2.095 12.968,-42.77 12.968,-42.77c0,0 0.879,-5.236 3.72,-4.489" fill="#000000"/><path d="M213.914,193.035c0.45,0.114 0.278,0.208 0.094,1.241c-0.33,1.863 -11.676,37.192 -12.039,38.421c-0.35,1.187 -0.611,2.423 -1.161,3.539c-0.193,0.193 -0.406,0.271 -0.669,0.162c-0.44,-0.338 -0.226,-2.226 0.103,-3.15c0.206,-0.582 12.029,-38.548 12.029,-38.548c0,0 0.854,-1.866 1.643,-1.665" fill="#000000"/><path d="M234.687,217.627c5.767,-0.007 13.785,-0.035 20.865,-0.064v3.779c-8.28,0.07 -17.024,0.044 -20.865,0.037v-3.752" fill="#006482"/><path d="M267.977,202.081c2.022,-0.398 1.255,3.014 1.036,4.033c-0.73,0.516 -4.005,0.998 -4.814,0.726c-6.677,0.152 -32.312,0.13 -39.763,0.286c-1.33,0.334 -2.86,-0.28 -3.815,-1.106c-0.876,-1.872 -0.139,-3.172 2.164,-3.017c2.944,-1.038 37.844,-1.322 45.192,-0.922" fill="#008cb4"/><path d="M274.176,233.373c0.042,1.09 -0.286,0.765 -2.747,1.043c-4.436,0.502 -42.964,0.39 -45.989,0.393c-2.918,0.002 -5.89,0.241 -8.781,-0.251c-0.566,-0.308 -0.886,-0.737 -0.815,-1.403c0.471,-1.22 3.071,-1.286 5.379,-1.164c1.457,0.077 49.432,-0.082 49.432,-0.082c0,0 3.444,-0.452 3.521,1.464" fill="#008cb4"/></g><g stroke-width="1"><path d="M260.723,191.712c-0.074,0.697 -0.582,10.011 -0.735,11.303c-4.177,0.899 -27.378,1.21 -29.248,0.734l-3.822,-11.744c4.47,0.339 31.939,-0.62 33.805,-0.293" fill="#780046"/><path d="M253.406,159.544c0.072,2.216 0,9.011 0,9.011l-17.822,1.892c0,0 0.912,-10.63 1.226,-11.459c0.428,-0.27 15.53,0.283 16.596,0.556" fill="#be965a"/><path d="M259.425,177.212c0.14,0.865 3.078,16.45 2.745,17.24l-34.31,0.339c-1.002,-1.239 0.47,-6.541 0.655,-7.918c0.568,-4.257 1.221,-8.505 1.954,-12.737c0.404,-2.335 3.523,-15.219 6.284,-16.092c0.228,-0.073 2.178,0.042 2.178,0.042c0,0 -0.074,2.718 1.087,4.788c0.807,1.439 2.737,2.619 5.281,2.551c1.432,-0.039 3.593,-0.963 4.873,-2.74c0.998,-1.384 1.305,-3.642 1.311,-4.083c0.717,-0.133 3.52,0.119 3.52,0.119c0,0 0.862,2.485 1.61,5.544c1.239,5.072 2.642,11.905 2.812,12.947" fill="#f01446"/></g><g stroke-width="1"><path d="M226.918,196.659v-4.904h34.816v4.904h-34.816" fill="#000000"/><path d="M241.054,197.137v-6.07h7.78v6.07h-7.78" fill="#64645a"/></g><g stroke-width="1"><path d="M264.311,193.793c-0.06,6.621 -2.15,12.806 -2.15,12.806l-12.344,0.194c0,0 0.806,-19.389 3.91,-22.377c0.871,-0.838 3.031,-3.571 7.322,-1.73c4.292,1.842 3.289,8.197 3.262,11.107" fill="#be965a"/><path d="M263.825,202.244c-0.721,3.719 -2.128,9.638 -2.906,10.808c-1.954,0.454 -10.001,1.48 -12.156,0.847c-0.011,-1.369 0.114,-8.021 0.451,-11.655z" fill="#f0e6d2"/><path d="M246.012,230.67l6.651,-1.672l9.177,1.819l-0.247,1.247l-15.814,0.093l0.233,-1.487" fill="#f01446"/><path d="M262.678,210.236c-1.059,5.425 -4.324,17.144 -4.927,19.133c1.209,0.469 3.312,-0.05 4.232,0.96c-0.036,0.125 -0.083,0.283 -0.143,0.488c-1.212,-0.096 -15.828,-0.147 -15.828,-0.147c0,0 1.474,-17.172 1.716,-20.25c0.269,-0.01 3.906,-0.054 7.526,-0.098c3.721,-0.044 7.424,-0.086 7.424,-0.086" fill="#000000"/><path d="M255.936,215.495c0,2.141 -1.738,3.877 -3.883,3.877c-2.144,0 -3.882,-1.736 -3.882,-3.877c0,-2.142 1.738,-3.877 3.882,-3.877c2.145,0 3.883,1.735 3.883,3.877" fill="#f01446"/><path d="M253.895,215.495c0,1.016 -0.824,1.84 -1.842,1.84c-1.017,0 -1.842,-0.824 -1.842,-1.84c0,-1.017 0.825,-1.84 1.842,-1.84c1.018,0 1.842,0.823 1.842,1.84" fill="#780046"/><path d="M261.491,212.065c0,0.426 -0.346,0.772 -0.772,0.772c-0.427,0 -0.773,-0.346 -0.773,-0.772c0,-0.426 0.346,-0.771 0.773,-0.771c0.426,0 0.772,0.345 0.772,0.771" fill="#780046"/><path d="M260.653,215.089c0,0.426 -0.346,0.772 -0.772,0.772c-0.426,0 -0.773,-0.346 -0.773,-0.772c0,-0.426 0.347,-0.771 0.773,-0.771c0.426,0 0.772,0.345 0.772,0.771" fill="#780046"/><path d="M259.945,218.242c0,0.426 -0.346,0.771 -0.772,0.771c-0.427,0 -0.773,-0.345 -0.773,-0.771c0,-0.426 0.346,-0.771 0.773,-0.771c0.426,0 0.772,0.345 0.772,0.771" fill="#780046"/><path d="M259.172,220.88c0,0.426 -0.347,0.771 -0.772,0.771c-0.427,0 -0.773,-0.345 -0.773,-0.771c0,-0.426 0.346,-0.772 0.773,-0.772c0.425,0 0.772,0.346 0.772,0.772" fill="#780046"/><path d="M258.463,223.646c0,0.426 -0.346,0.772 -0.772,0.772c-0.427,0 -0.773,-0.346 -0.773,-0.772c0,-0.426 0.346,-0.771 0.773,-0.771c0.426,0 0.772,0.345 0.772,0.771" fill="#780046"/><path d="M257.69,226.542c0,0.426 -0.346,0.771 -0.772,0.771c-0.427,0 -0.773,-0.345 -0.773,-0.771c0,-0.426 0.346,-0.771 0.773,-0.771c0.426,0 0.772,0.345 0.772,0.771" fill="#780046"/></g><g stroke-width="1"><path d="M239.459,204.414c-1.068,0.073 -11.097,-0.192 -11.419,-0.241c-0.439,-2.534 -2.657,-9.704 -2.487,-14.464c0.102,-2.826 0.876,-5.702 2.551,-7.281c1.006,-0.948 2.336,-1.428 4.04,-1.152c4.406,0.717 5.825,7.242 6.386,10.962c0.536,3.55 0.477,8.653 0.929,12.176" fill="#be965a"/><path d="M239.931,202.252c0.42,2.733 1.362,8.79 0.945,9.92c-3.212,0.694 -9.452,1.028 -12.564,-0.021c-0.257,-2.024 -1.005,-6.979 -1.451,-9.899z" fill="#f0e6d2"/><path d="M243.636,230.678l0.232,1.487l-15.813,-0.092l-0.247,-1.248l9.177,-1.818l6.651,1.671" fill="#f01446"/><path d="M226.97,210.245c0,0 3.701,0.041 7.423,0.085c3.62,0.044 7.258,0.088 7.525,0.098c0.243,3.078 1.718,20.25 1.718,20.25c0,0 -14.617,0.052 -15.829,0.147c-0.059,-0.204 -0.107,-0.363 -0.143,-0.488c0.92,-1.01 3.023,-0.491 4.232,-0.959c-0.603,-1.99 -3.749,-13.07 -4.926,-19.133" fill="#000000"/><path d="M233.711,215.503c0,-2.142 1.739,-3.877 3.883,-3.877c2.144,0 3.882,1.735 3.882,3.877c0,2.141 -1.738,3.878 -3.882,3.878c-2.144,0 -3.883,-1.737 -3.883,-3.878" fill="#f01446"/><path d="M235.752,215.503c0,-1.017 0.824,-1.839 1.842,-1.839c1.018,0 1.842,0.822 1.842,1.839c0,1.016 -0.824,1.84 -1.842,1.84c-1.018,0 -1.842,-0.824 -1.842,-1.84" fill="#780046"/><path d="M228.156,212.074c0,-0.427 0.347,-0.772 0.772,-0.772c0.427,0 0.774,0.345 0.774,0.772c0,0.425 -0.347,0.771 -0.774,0.771c-0.425,0 -0.772,-0.346 -0.772,-0.771" fill="#780046"/><path d="M228.994,215.097c0,-0.426 0.346,-0.771 0.772,-0.771c0.427,0 0.773,0.345 0.773,0.771c0,0.426 -0.346,0.772 -0.773,0.772c-0.426,0 -0.772,-0.346 -0.772,-0.772" fill="#780046"/><path d="M229.703,218.25c0,-0.426 0.346,-0.771 0.772,-0.771c0.426,0 0.773,0.345 0.773,0.771c0,0.426 -0.347,0.772 -0.773,0.772c-0.426,0 -0.772,-0.346 -0.772,-0.772" fill="#780046"/><path d="M230.476,220.888c0,-0.426 0.346,-0.771 0.772,-0.771c0.426,0 0.773,0.345 0.773,0.771c0,0.426 -0.347,0.771 -0.773,0.771c-0.426,0 -0.772,-0.345 -0.772,-0.771" fill="#780046"/><path d="M231.184,223.655c0,-0.427 0.346,-0.772 0.772,-0.772c0.427,0 0.773,0.345 0.773,0.772c0,0.425 -0.346,0.771 -0.773,0.771c-0.426,0 -0.772,-0.346 -0.772,-0.771" fill="#780046"/><path d="M231.957,226.55c0,-0.426 0.347,-0.771 0.772,-0.771c0.427,0 0.773,0.345 0.773,0.771c0,0.426 -0.346,0.772 -0.773,0.772c-0.425,0 -0.772,-0.346 -0.772,-0.772" fill="#780046"/></g><path d="M217.29986,164.96438c0.15046,0.15046 0.27532,0.30093 0.37782,0.4503c6.02356,2.86173 11.72897,6.65578 16.64262,11.07658c0.70422,0.63359 1.83255,1.48033 2.94372,2.42492c0.36416,0.05161 0.70307,0.18169 0.99907,0.37257c0.45571,-0.61191 1.18474,-1.00824 2.00634,-1.00824c0.96503,0 1.80235,0.54679 2.21906,1.34745l0.99831,1.83024c1.29309,-0.97331 2.82757,-1.77224 4.58604,-2.47257c2.94114,-1.17134 9.28437,-4.34645 10.24042,2.31518c0.1671,1.16432 -0.59738,2.93741 -1.63693,4.67239c2.45966,-0.19812 4.92345,-0.50775 7.37401,-0.81279c-1.02399,-1.48472 -1.20934,-3.83707 -0.46416,-6.18455c0.30732,-0.96811 1.9526,-2.72713 3.59499,-4.15074c-0.2377,-0.14614 -0.47592,-0.27495 -0.71892,-0.39087l-4.31884,0.28792c-0.06292,0.00474 -0.12648,0.00716 -0.19061,0.00716c-1.38071,0 -2.5,-1.11929 -2.5,-2.5c0,-1.29614 0.98638,-2.36191 2.24944,-2.4876l2.91767,-0.33001l0.00365,0.03229l0.06741,-0.03931c1.83507,-0.08925 3.7236,-0.71642 5.50522,-0.26775c2.22997,0.56159 5.24111,1.06694 6.11481,3.19409c0.43176,1.0512 -0.7929,2.44424 -2.28652,3.6997l0.12646,1.6913c0,0 -0.60634,2.42536 -3.0317,1.81902c-0.48047,-0.12012 -0.84196,-0.31162 -1.11276,-0.54151c-0.72253,0.58621 -2.63409,1.97945 -1.86057,3.38559c0.24051,0.43721 1.012,0.27024 1.35817,0.62961l3.0157,2.11099c0.66095,0.44989 1.095,1.20832 1.095,2.06814c0,1.38071 -1.11929,2.5 -2.5,2.5h-2.94978c-5.18593,0.58349 -10.34876,1.43708 -15.55038,1.56844c-0.85745,1.00876 -1.69895,2.17818 -2.94714,2.34241c-2.43927,0.32095 -4.1332,-0.48054 -5.46148,-1.78372c-0.94339,0.8456 -2.09215,1.53427 -3.29572,1.98567c0.18026,0.07084 0.36101,0.14039 0.54236,0.20836c0,0 2.34082,0.87781 1.46301,3.21863c-0.87781,2.34082 -3.21863,1.46301 -3.21863,1.46301c-1.85195,-0.69487 -6.17786,-2.2791 -7.33171,-2.98175c-1.47892,-0.90061 -3.84722,-1.60346 -3.98751,-3.32932c-0.1331,-1.63742 0.25217,-3.06725 0.96854,-4.29256c-0.73372,-0.24858 -1.44188,-0.54899 -2.08853,-0.97011c-0.83769,-0.54552 -1.9295,-1.76919 -2.69918,-3.20183c-1.46525,-0.73632 -2.9091,-1.47027 -4.31131,-2.13064l-0.06254,-0.07021l-0.01576,0.02812l-2.15152,-1.2062c-0.78602,-0.42132 -1.32062,-1.25067 -1.32062,-2.20488c0,-1.28702 0.97254,-2.3469 2.22282,-2.48481l4.92848,-0.61606l0.00291,0.02331c0.07213,-0.01432 0.14443,-0.02799 0.21691,-0.04099c0.16536,-0.02964 0.32888,-0.05651 0.49059,-0.08064c-3.26622,-2.2584 -6.75776,-4.23007 -10.34726,-5.81607l-0.44702,-4.3577c0,0 1.76777,-1.76777 3.53553,0zM251.60118,184.62493c0.62106,-0.82276 1.22013,-1.66365 1.77518,-2.53232c0.6487,-1.01524 -2.22263,0.93511 -3.30012,1.47413c-0.12358,0.06182 -0.24845,0.12177 -0.37422,0.18044c0.30024,0.18252 0.60263,0.3595 0.91106,0.52089l0.19319,0.3294l0.08752,-0.08752l0.44907,0.44907c0.08727,-0.11046 0.1735,-0.22173 0.25831,-0.33409z" fill="#ffffff" stroke-width="0.5"/></g></g></svg>